<svg height="480pt" viewBox="0 0 480 480" width="480pt" xmlns="http://www.w3.org/2000/svg" xmlns:xlink="http://www.w3.org/1999/xlink"><linearGradient id="a"><stop offset="0" stop-color="#fff200"/><stop offset="1" stop-color="#cd118c"/></linearGradient><linearGradient id="b" gradientUnits="userSpaceOnUse" x1="-11.048" x2="474.288" xlink:href="#a" y1="463.152" y2="-6.184"/><linearGradient id="c" gradientUnits="userSpaceOnUse" x1="-1.24" x2="484.088" xlink:href="#a" y1="473.288" y2="3.96"/><linearGradient id="d" gradientUnits="userSpaceOnUse" x1="-36.04" x2="449.296" xlink:href="#a" y1="437.312" y2="-32.024"/><path d="m256 136v-56.800781l-176 17.601562v286.480469l176 17.597656v-56.878906h144v-208zm128 16v16.65625l-112 62.175781-16-9.03125v-69.800781zm-144 231.199219-144-14.398438v-257.5625l144-14.398437zm16-55.199219v-87.832031l16 9 112-62.214844v141.046875zm0 0" fill="url(#b)"/><path d="m240 0c-132.546875 0-240 107.453125-240 240s107.453125 240 240 240 240-107.453125 240-240c-.148438-132.484375-107.515625-239.851562-240-240zm0 464c-123.710938 0-224-100.289062-224-224s100.289062-224 224-224 224 100.289062 224 224c-.140625 123.652344-100.347656 223.859375-224 224zm0 0" fill="url(#c)"/><path d="m168 160c-31.398438 0-56 35.144531-56 80s24.601562 80 56 80 56-35.144531 56-80-24.601562-80-56-80zm0 144c-21.679688 0-40-29.304688-40-64s18.320312-64 40-64 40 29.304688 40 64-18.320312 64-40 64zm0 0" fill="url(#d)"/></svg>