<svg id="Capa_1" enable-background="new 0 0 512 512" height="512" viewBox="0 0 512 512" width="512" xmlns="http://www.w3.org/2000/svg"><path d="m321.032 383.109h-130.064l-8.97 60.202h148.004z" fill="#4e5660"/><path d="m354.192 483.969h-196.384c-8.553 0-14.703-8.222-12.288-16.426l1.786-6.067c3.17-10.77 13.056-18.165 24.283-18.165h168.823c11.227 0 21.113 7.395 24.283 18.165l1.786 6.067c2.414 8.205-3.736 16.426-12.289 16.426z" fill="#c6c6c6"/><path d="m238.706 443.311h-67.118c-11.227 0-21.113 7.395-24.283 18.165l-1.786 6.066c-2.415 8.205 3.735 16.426 12.288 16.426h90.952c-10.335-10.55-13.119-29.442-10.053-40.657z" fill="#9aa3b1"/><path d="m450.933 383.109h-389.866c-33.726 0-61.067-27.341-61.067-61.067v-232.944c0-33.726 27.341-61.067 61.067-61.067h389.866c33.726 0 61.067 27.341 61.067 61.067v232.944c0 33.726-27.341 61.067-61.067 61.067z" fill="#4e5660"/><path d="m165.36 28.031h-104.293c-33.726 0-61.067 27.34-61.067 61.067v232.944c0 33.726 27.341 61.067 61.067 61.067h150.41c-58.045-60.747-83.592-231.269-46.117-355.078z" fill="#383c43"/><path d="m41.768 314.341v-217.542c0-14.912 12.088-27 27-27h374.464c14.912 0 27 12.088 27 27v217.542c0 14.912-12.088 27-27 27h-374.464c-14.912 0-27-12.088-27-27z" fill="#a3defe"/><path d="m183.861 341.341c-32.551-67.666-45.766-177.18-28.514-271.542h-86.579c-14.912 0-27 12.088-27 27v217.542c0 14.912 12.088 27 27 27z" fill="#7acefa"/><path d="m0 304.954v17.088c0 33.726 27.341 61.067 61.067 61.067h389.866c33.726 0 61.067-27.341 61.067-61.067v-17.088z" fill="#c6c6c6"/><path d="m0 304.954v17.088c0 33.726 27.341 61.067 61.067 61.067h150.41c-17.081-17.876-31.346-45.25-42.021-78.155z" fill="#9aa3b1"/><circle cx="256" cy="344.032" fill="#fff" r="22.327"/><path d="m119.95 200.222h84.303c9.059 0 16.403-7.344 16.403-16.403v-19.86c0-9.059-7.344-16.403-16.403-16.403h-84.303c-9.059 0-16.403 7.344-16.403 16.403v19.86c0 9.059 7.344 16.403 16.403 16.403z" fill="#fff"/><path d="m147.852 147.556h-27.902c-9.059 0-16.403 7.344-16.403 16.403v19.86c0 9.059 7.344 16.403 16.403 16.403h29.538c-1.39-17.335-1.954-34.996-1.636-52.666z" fill="#fcf2d0"/><path d="m225.069 155.893c-16.239 16.239-41.521 19.022-54.497 19.299-4.715.101-8.57-3.754-8.469-8.469.277-12.975 3.06-38.257 19.299-54.497 16.24-16.239 41.521-19.022 54.497-19.299 4.715-.101 8.57 3.754 8.469 8.469-.277 12.975-3.059 38.257-19.299 54.497z" fill="#89d47f"/><path d="m192.712 152.083c-1.919 0-3.839-.732-5.304-2.197-2.929-2.929-2.929-7.678 0-10.606l21.048-21.048c2.93-2.929 7.678-2.929 10.607 0s2.929 7.678 0 10.606l-21.048 21.048c-1.464 1.465-3.384 2.197-5.303 2.197z" fill="#5ec783"/><path d="m406.493 255.427c-3.839 0-7.678-1.464-10.607-4.393l-46.657-46.657c-5.858-5.857-5.858-15.355 0-21.213 5.857-5.858 15.355-5.858 21.213 0l46.657 46.657c5.858 5.857 5.858 15.355 0 21.213-2.928 2.929-6.767 4.393-10.606 4.393z" fill="#4e5660"/><path d="m407.753 190.245-31.623 10.095c-4.624 1.476-8.248 5.1-9.724 9.724l-10.095 31.623c-4.465 13.988-24.293 13.885-28.613-.148l-27.2-88.366c-3.541-11.505 7.236-22.282 18.741-18.741l88.366 27.2c14.033 4.32 14.136 24.148.148 28.613z" fill="#4e5660"/><path d="m206.278 243.549h-88.354c-4.143 0-7.5-3.358-7.5-7.5s3.357-7.5 7.5-7.5h88.354c4.143 0 7.5 3.358 7.5 7.5s-3.357 7.5-7.5 7.5z" fill="#f7ef87"/><path d="m162.102 275.392h-44.177c-4.143 0-7.5-3.358-7.5-7.5s3.357-7.5 7.5-7.5h44.177c4.143 0 7.5 3.358 7.5 7.5s-3.358 7.5-7.5 7.5z" fill="#e8899e"/></svg>